<?xml version="1.0" encoding="utf-8"?>
<!-- Generator: Adobe Illustrator 23.0.1, SVG Export Plug-In . SVG Version: 6.00 Build 0)  -->
<svg version="1.1" id="Layer_1" xmlns="http://www.w3.org/2000/svg" xmlns:xlink="http://www.w3.org/1999/xlink" x="0px" y="0px"
	 viewBox="0 0 800 600" style="enable-background:new 0 0 800 600;" xml:space="preserve">
<style type="text/css">
	.st0{fill:#3297B7;}
</style>
<g>
	<polygon class="st0" points="211,285.76 225.91,271.85 236.84,318.57 224.92,318.57 	"/>
	<polygon class="st0" points="237.84,315.58 247.78,315.58 244.79,252.96 225.91,263.9 	"/>
	<polygon class="st0" points="249.76,320.55 257.72,320.55 267.66,247 246.78,255.95 	"/>
</g>
<g>
	<path d="M283.52,297.3l-10.1,17.3h-2.18l11.27-18.98l-10.66-18.25h2.23l9.43,16.47l9.43-16.47h2.23l-10.66,18.2l11.27,19.03h-2.18
		L283.52,297.3z"/>
	<path d="M301.16,277.37h17.25v1.67h-15.46v15.57h15.07v1.67h-15.07v16.63h15.46v1.67h-17.25V277.37z"/>
	<path d="M327.73,281.39v33.21h-1.79v-37.23h1.79l17.81,32.88v-32.88h1.79v37.23h-1.79L327.73,281.39z"/>
	<path d="M372.44,304.61h-14.79l-2.96,9.99h-1.95l11.22-37.23h2.12l11.27,37.23h-1.95L372.44,304.61z M358.1,302.94h13.84
		l-6.92-23.22L358.1,302.94z"/>
	<path d="M380.93,277.37h23.5v8.99h-12.95v4.91h12.56v8.99h-12.56v5.36h12.95v8.99h-23.5V277.37z"/>
	<path d="M405.54,277.37h11.44l5.92,24.89l5.86-24.89h11.44l-10.94,37.23h-12.78L405.54,277.37z"/>
	<path d="M442.22,277.37h23.5v8.99h-12.95v4.91h12.56v8.99h-12.56v5.36h12.95v8.99h-23.5V277.37z"/>
	<path d="M480.62,295.46v19.15h-10.44v-37.23h10.72l9.32,18.03v-18.03h10.38v37.23h-9.99L480.62,295.46z"/>
	<path d="M511.99,286.58h-7.7v-9.21h25.95v9.21h-7.65v28.02h-10.61V286.58z"/>
	<path d="M535.83,302.27c2.23,2.34,5.64,3.91,9.15,3.91c2.01,0,3.52-0.89,3.52-2.29c0-1.62-1.67-2.51-4.63-3.46
		c-4.8-1.56-11.83-3.52-11.83-11.83c0-6.08,4.69-11.83,13.84-11.83c4.91,0,9.38,1.51,12.67,4.3l-4.8,7.81
		c-2.46-2.07-5.47-3.01-7.87-3.01c-2.34,0-3.07,1-3.07,2.12c0,1.56,1.62,2.34,4.74,3.35c4.8,1.56,11.61,3.8,11.61,11.55
		c0,7.59-5.36,12.39-14.01,12.39c-6.42,0-10.88-1.84-14.23-4.97L535.83,302.27z"/>
</g>
</svg>
