<?xml version="1.0" encoding="utf-8"?>
<!-- Generator: Adobe Illustrator 23.0.1, SVG Export Plug-In . SVG Version: 6.00 Build 0)  -->
<svg version="1.1" id="Layer_1" xmlns="http://www.w3.org/2000/svg" xmlns:xlink="http://www.w3.org/1999/xlink" x="0px" y="0px"
	 viewBox="0 0 1024 768" style="enable-background:new 0 0 1024 768;" xml:space="preserve">
<style type="text/css">
	.st0{fill:#444444;}
	.st1{fill:#FFFFFF;}
</style>
<g>
	<g>
		<rect x="184.33" y="242.6" class="st0" width="203" height="203"/>
	</g>
	<g>
		<path class="st1" d="M260.38,279.44h50.91l49.3,129.32h-57.52l-4.47-16.97h-29.65l-5,16.97h-52.87L260.38,279.44z M290.03,359.29
			l-5.72-26.26h-0.36l-5.72,26.26H290.03z"/>
	</g>
</g>
<g>
	<g>
		<rect x="417.48" y="242.6" class="st0" width="203" height="203"/>
	</g>
	<g>
		<path class="st1" d="M518.98,277.48c40.55,0,72.16,29.11,72.16,66.62c0,37.51-31.62,66.63-72.16,66.63s-72.16-29.12-72.16-66.63
			C446.82,306.59,478.43,277.48,518.98,277.48z M518.98,365c11.07,0,20.01-8.93,20.01-20.01c0-11.07-8.93-20.01-20.01-20.01
			s-20.01,8.93-20.01,20.01C498.97,356.07,507.9,365,518.98,365z"/>
	</g>
</g>
<g>
	<g>
		<rect x="650.62" y="242.6" class="st0" width="203" height="203"/>
	</g>
	<g>
		<path class="st1" d="M677.46,279.44h57.52l19.11,68.59h0.36l20.36-68.59h51.98l-49.48,129.32h-50.37L677.46,279.44z"/>
	</g>
</g>
</svg>
